<svg width="40" height="40" viewBox="0 0 40 40" fill="none" xmlns="http://www.w3.org/2000/svg">
<path fill-rule="evenodd" clip-rule="evenodd" d="M28.3333 3.33337C29.2538 3.33337 30 4.07957 30 5.00004V6.66671H31.6666C34.4281 6.66671 36.6666 8.90528 36.6666 11.6667V15C36.6666 15.9205 35.9205 16.6667 35 16.6667C34.0795 16.6667 33.3333 15.9205 33.3333 15V11.6667C33.3333 10.7462 32.5871 10 31.6666 10H30V11.6667C30 12.5872 29.2538 13.3334 28.3333 13.3334C27.4128 13.3334 26.6666 12.5872 26.6666 11.6667V10H13.3333V11.6667C13.3333 12.5872 12.5871 13.3334 11.6666 13.3334C10.7462 13.3334 9.99998 12.5872 9.99998 11.6667V10H8.33331C7.41284 10 6.66665 10.7462 6.66665 11.6667V16.6667H15C15.9205 16.6667 16.6666 17.4129 16.6666 18.3334C16.6666 19.2538 15.9205 20 15 20H6.66665V31.6667C6.66665 32.5872 7.41284 33.3334 8.33331 33.3334H15C15.9205 33.3334 16.6666 34.0796 16.6666 35C16.6666 35.9205 15.9205 36.6667 15 36.6667H8.33331C5.57189 36.6667 3.33331 34.4281 3.33331 31.6667V11.6667C3.33331 8.90528 5.57189 6.66671 8.33331 6.66671H9.99998V5.00004C9.99998 4.07957 10.7462 3.33337 11.6666 3.33337C12.5871 3.33337 13.3333 4.07957 13.3333 5.00004V6.66671H26.6666V5.00004C26.6666 4.07957 27.4128 3.33337 28.3333 3.33337ZM28.3333 20C29.2538 20 30 20.7462 30 21.6667V26.6667H35C35.9205 26.6667 36.6666 27.4129 36.6666 28.3334C36.6666 29.2538 35.9205 30 35 30H30V35C30 35.9205 29.2538 36.6667 28.3333 36.6667C27.4128 36.6667 26.6666 35.9205 26.6666 35V30H21.6666C20.7462 30 20 29.2538 20 28.3334C20 27.4129 20.7462 26.6667 21.6666 26.6667H26.6666V21.6667C26.6666 20.7462 27.4128 20 28.3333 20Z" fill="white"/>
</svg>
