<svg width="40" height="40" viewBox="0 0 40 40" fill="none" xmlns="http://www.w3.org/2000/svg">
<path fill-rule="evenodd" clip-rule="evenodd" d="M28.3333 3.33337C29.2538 3.33337 30 4.07957 30 5.00004V6.66671H31.6666C34.4281 6.66671 36.6666 8.90528 36.6666 11.6667V31.6667C36.6666 34.4281 34.4281 36.6667 31.6666 36.6667H8.33331C5.57189 36.6667 3.33331 34.4281 3.33331 31.6667V11.6667C3.33331 8.90528 5.57189 6.66671 8.33331 6.66671H9.99998V5.00004C9.99998 4.07957 10.7462 3.33337 11.6666 3.33337C12.5871 3.33337 13.3333 4.07957 13.3333 5.00004V6.66671H26.6666V5.00004C26.6666 4.07957 27.4128 3.33337 28.3333 3.33337ZM6.66665 20V31.6667C6.66665 32.5872 7.41284 33.3334 8.33331 33.3334H31.6666C32.5871 33.3334 33.3333 32.5872 33.3333 31.6667V20H6.66665ZM6.66665 16.6667H33.3333V11.6667C33.3333 10.7462 32.5871 10 31.6666 10H30V11.6667C30 12.5872 29.2538 13.3334 28.3333 13.3334C27.4128 13.3334 26.6666 12.5872 26.6666 11.6667V10H13.3333V11.6667C13.3333 12.5872 12.5871 13.3334 11.6666 13.3334C10.7462 13.3334 9.99998 12.5872 9.99998 11.6667V10H8.33331C7.41284 10 6.66665 10.7462 6.66665 11.6667V16.6667Z" fill="white"/>
</svg>
