<svg width="30" height="30" viewBox="0 0 30 30" fill="none" xmlns="http://www.w3.org/2000/svg">
<path d="M8.74356 8.75796C8.2554 9.24612 8.2554 10.0376 8.74356 10.5257L13.225 15.0071L8.74356 19.4886C8.2554 19.9768 8.2554 20.7683 8.74356 21.2564C9.23171 21.7445 10.0232 21.7445 10.5113 21.2564L14.9927 16.7749L19.4742 21.2564C19.9624 21.7445 20.7539 21.7445 21.242 21.2564C21.7301 20.7683 21.7301 19.9768 21.242 19.4886L16.7605 15.0071L21.242 10.5257C21.7301 10.0376 21.7301 9.24613 21.242 8.75798C20.7537 8.26982 19.9624 8.26982 19.4742 8.75798L14.9927 13.2394L10.5113 8.75796C10.0232 8.26981 9.23171 8.26981 8.74356 8.75796Z" fill="#28799F"/>
</svg>
