<svg width="41" height="40" viewBox="0 0 41 40" fill="none" xmlns="http://www.w3.org/2000/svg">
<path fill-rule="evenodd" clip-rule="evenodd" d="M20.564 3.33331C29.7687 3.33331 37.2307 10.7952 37.2307 20C37.2307 29.2047 29.7687 36.6666 20.564 36.6666C11.3593 36.6666 3.89734 29.2047 3.89734 20C3.89734 10.7952 11.3593 3.33331 20.564 3.33331ZM20.564 6.66665C13.2002 6.66665 7.23067 12.6362 7.23067 20C7.23067 27.3638 13.2002 33.3333 20.564 33.3333C27.9278 33.3333 33.8973 27.3638 33.8973 20C33.8973 12.6362 27.9278 6.66665 20.564 6.66665ZM20.564 16.6666C21.4845 16.6666 22.2307 17.4128 22.2307 18.3333V28.3333C22.2307 29.2538 21.4845 30 20.564 30C19.6435 30 18.8973 29.2538 18.8973 28.3333V18.3333C18.8973 17.4128 19.6435 16.6666 20.564 16.6666ZM20.564 9.99998C21.4845 9.99998 22.2307 10.7462 22.2307 11.6666C22.2307 12.5871 21.4845 13.3333 20.564 13.3333C19.6435 13.3333 18.8973 12.5871 18.8973 11.6666C18.8973 10.7462 19.6435 9.99998 20.564 9.99998Z" fill="white"/>
</svg>
