<svg width="35" height="35" viewBox="0 0 35 35" fill="none" xmlns="http://www.w3.org/2000/svg">
<path fill-rule="evenodd" clip-rule="evenodd" d="M13.6135 6.8939V7.6612C9.69087 9.26977 6.95031 14.5532 7.04977 19.1321L7.04972 21.6753C5.04166 24.2569 5.15981 28.106 10.1697 28.106H13.6135C13.6135 29.1608 14.0246 30.1724 14.7563 30.9184C15.4879 31.6643 16.4803 32.0833 17.5152 32.0833C18.55 32.0833 19.5424 31.6643 20.274 30.9184C21.0058 30.1724 21.4168 29.1608 21.4168 28.106H24.8701C29.8705 28.106 29.9429 24.2488 27.9351 21.6673L27.991 19.1356C28.092 14.5514 25.3463 9.26321 21.4168 7.65693V6.8939C21.4168 5.83907 21.0058 4.82742 20.274 4.08154C19.5424 3.33566 18.55 2.91663 17.5152 2.91663C16.4803 2.91663 15.4879 3.33566 14.7563 4.08154C14.0246 4.82742 13.6135 5.83905 13.6135 6.8939ZM18.8157 6.8939C18.8157 6.92082 18.815 6.94766 18.8134 6.97438C18.3897 6.92125 17.9582 6.8939 17.5204 6.8939C17.079 6.8939 16.644 6.92171 16.2171 6.97568C16.2155 6.94854 16.2146 6.92125 16.2146 6.8939C16.2146 6.54229 16.3517 6.20508 16.5955 5.95645C16.8394 5.70782 17.1703 5.56814 17.5152 5.56814C17.8601 5.56814 18.191 5.70782 18.4348 5.95645C18.6788 6.20508 18.8157 6.54229 18.8157 6.8939ZM16.2146 28.106C16.2146 28.4576 16.3517 28.7949 16.5955 29.0435C16.8394 29.292 17.1703 29.4318 17.5152 29.4318C17.8601 29.4318 18.191 29.292 18.4348 29.0435C18.6788 28.7949 18.8157 28.4576 18.8157 28.106H16.2146ZM24.8701 25.4544C25.9812 25.4544 26.5806 24.1259 25.8576 23.2659C25.5063 22.8481 25.319 22.3165 25.3311 21.7708L25.3905 19.0761C25.4898 14.5748 21.9373 9.54541 17.5204 9.54541C13.1046 9.54541 9.5525 14.5731 9.65025 19.0734L9.70883 21.7713C9.72069 22.3168 9.53351 22.8483 9.18224 23.2659C8.45913 24.1259 9.05856 25.4544 10.1697 25.4544H24.8701Z" fill="white"/>
</svg>
