<svg width="40" height="40" viewBox="0 0 40 40" fill="none" xmlns="http://www.w3.org/2000/svg">
<path fill-rule="evenodd" clip-rule="evenodd" d="M31.6666 3.33337C34.4281 3.33337 36.6666 5.57195 36.6666 8.33337V31.6667C36.6666 34.4281 34.4281 36.6667 31.6666 36.6667H8.33331C5.57189 36.6667 3.33331 34.4281 3.33331 31.6667V8.33337C3.33331 5.57195 5.57189 3.33337 8.33331 3.33337H31.6666ZM31.6666 6.66671H8.33331C7.41284 6.66671 6.66665 7.4129 6.66665 8.33337V31.6667C6.66665 32.5872 7.41284 33.3334 8.33331 33.3334H31.6666C32.5871 33.3334 33.3333 32.5872 33.3333 31.6667V8.33337C33.3333 7.4129 32.5871 6.66671 31.6666 6.66671ZM13.3333 23.3334C14.2538 23.3334 15 24.0796 15 25V28.3334C15 29.2538 14.2538 30 13.3333 30C12.4128 30 11.6666 29.2538 11.6666 28.3334V25C11.6666 24.0796 12.4128 23.3334 13.3333 23.3334ZM20 10C20.9205 10 21.6666 10.7462 21.6666 11.6667V28.3334C21.6666 29.2538 20.9205 30 20 30C19.0795 30 18.3333 29.2538 18.3333 28.3334V11.6667C18.3333 10.7462 19.0795 10 20 10ZM26.6666 16.6667C27.5871 16.6667 28.3333 17.4129 28.3333 18.3334V28.3334C28.3333 29.2538 27.5871 30 26.6666 30C25.7462 30 25 29.2538 25 28.3334V18.3334C25 17.4129 25.7462 16.6667 26.6666 16.6667Z" fill="white"/>
</svg>
