<svg width="40" height="40" viewBox="0 0 40 40" fill="none" xmlns="http://www.w3.org/2000/svg">
<path fill-rule="evenodd" clip-rule="evenodd" d="M18.1626 3.33643H21.7001C21.8071 3.34139 21.901 3.35362 22.0329 3.38234C23.0003 3.593 23.3681 3.94037 24.2684 6.06783L24.4152 6.41878L24.981 7.82075L25.0275 7.83987L25.7565 7.50986C27.3442 6.79987 28.1627 6.50081 28.713 6.41737L28.827 6.40272L29.0348 6.39151C29.5303 6.39151 30.035 6.56702 30.4213 6.8726L30.6039 7.03603L32.8655 9.2882L33.0227 9.45436C33.7331 10.2369 33.7994 10.7917 33.0137 12.8137L32.7522 13.466L32.1359 14.9242L32.1476 14.9527L33.5594 15.4799L34.2401 15.7489C35.9983 16.4678 36.3596 16.8509 36.5946 17.731C36.642 17.9085 36.6588 18.0294 36.6643 18.1794L36.6666 18.3424V21.5219C36.6666 21.748 36.6589 21.8756 36.6033 22.099C36.3693 23.0385 36.0221 23.3963 33.9091 24.2888L33.5606 24.4343L32.1682 24.9962L32.1586 25.0196L32.662 26.1194C33.9139 28.9019 33.9577 29.5119 33.1348 30.4283L33.0319 30.5399L30.7104 32.8596C30.2949 33.2798 29.7027 33.5111 29.1298 33.5111C28.6433 33.5111 27.8791 33.2798 26.5765 32.7574L25.8791 32.4717L25.0848 32.1358L25.0393 32.1546L24.6289 33.2554C23.6239 35.903 23.2797 36.3329 22.2473 36.5993C22.0948 36.6387 21.9857 36.6555 21.8618 36.6623L21.6576 36.6666H18.476C18.2775 36.6666 18.1654 36.6607 17.9682 36.6179C17.0011 36.4082 16.6319 36.0601 15.7298 33.9314L15.5827 33.5802L15.016 32.1775L14.9724 32.1595L13.9136 32.6355C12.22 33.381 11.4863 33.608 10.9634 33.608C10.4737 33.608 9.97511 33.4359 9.57845 33.1274L9.38913 32.962L7.1307 30.7065L6.8728 30.4252C6.25345 29.6965 6.223 29.1314 6.98321 27.1864L7.37935 26.2128L7.86293 25.076L7.85284 25.0516L6.75804 24.6436C4.56179 23.8102 3.88495 23.4264 3.56331 22.7255L3.47631 22.505L3.40364 22.2609C3.36252 22.1048 3.34497 21.993 3.33784 21.8657L3.33331 21.6558V18.4744C3.33331 18.2466 3.34121 18.1178 3.39793 17.8925C3.60941 17.0525 3.90958 16.6795 5.49076 15.971L6.14608 15.688L7.82886 15.0075L7.84039 14.9794L7.21122 13.5912C6.17303 11.2331 6.08705 10.5151 6.74207 9.71321L6.83169 9.608L7.04392 9.38306L9.29358 7.13849C9.70575 6.72404 10.2953 6.49039 10.8691 6.49039C11.2796 6.49039 11.8822 6.65279 12.8467 7.01811L13.8171 7.40277L14.9171 7.86381L14.9622 7.84505L15.3758 6.73702C16.3901 4.07037 16.7521 3.62442 17.822 3.38492C17.957 3.35471 18.0532 3.34183 18.1626 3.33643ZM20.8717 6.66661H19.0134L18.7514 7.28082C18.6519 7.525 18.5397 7.81022 18.4129 8.14129L17.8322 9.69483C17.6929 10.0626 17.4289 10.3673 17.0896 10.5578L16.9138 10.6433L15.5486 11.2114C15.204 11.3549 14.8233 11.3776 14.4673 11.2799L14.2572 11.2069L12.6421 10.5261L11.7697 10.1782L11.1833 9.96177L9.86626 11.2758L10.0213 11.6673C10.0818 11.8148 10.1515 11.9796 10.231 12.1633L10.4995 12.7721L11.1727 14.2439C11.334 14.5944 11.3677 14.9877 11.2725 15.3568L11.1999 15.5748L10.6417 16.9314C10.4939 17.2905 10.2262 17.5848 9.88735 17.7663L9.7122 17.8474L7.89957 18.5761L6.99346 18.9645L6.66665 19.1158V20.9994L7.0577 21.1689C7.20575 21.2309 7.372 21.2984 7.55793 21.372L8.17629 21.612L9.67885 22.17C10.0577 22.3065 10.372 22.5747 10.5669 22.922L10.6542 23.102L11.2125 24.4545C11.3559 24.8019 11.3769 25.1852 11.2761 25.5428L11.201 25.7537L10.553 27.2742L10.1466 28.2773L9.94867 28.8099L11.2658 30.1253L11.658 29.9703C11.8024 29.9115 11.9607 29.8454 12.1333 29.7718L13.3431 29.2383L14.2155 28.8367C14.5806 28.6623 14.9944 28.6276 15.3799 28.7346L15.57 28.8L16.9432 29.3669C17.3072 29.5172 17.6042 29.7905 17.7845 30.136L17.8648 30.3144L18.2065 31.1767L18.6928 32.3594L18.9743 33.0056L19.1269 33.3333H20.9906L21.2568 32.7058L21.6034 31.8206L22.1679 30.3072C22.3071 29.9362 22.573 29.6289 22.9153 29.4377L23.0926 29.3519L24.46 28.7877C24.8007 28.6471 25.1763 28.6241 25.5283 28.7187L25.7362 28.7896L27.0238 29.3357L27.9635 29.7185L28.4778 29.9168L28.8172 30.0397L30.1358 28.7234L29.8817 28.0963L29.5006 27.2271L28.8259 25.7564C28.6641 25.4053 28.6303 25.0112 28.7259 24.6414L28.7988 24.423L29.3561 23.0723C29.5031 22.716 29.7683 22.4235 30.104 22.242L30.2775 22.1607L31.8127 21.5435L32.5964 21.215L32.8119 21.1213L33.3333 20.8827V19.001L32.8105 18.7778L32.1025 18.4976L30.3151 17.8323C29.9372 17.6947 29.6239 17.4261 29.4299 17.0788L29.3431 16.8988L28.7858 15.5408C28.6436 15.1943 28.623 14.8123 28.7235 14.4559L28.7983 14.2456L29.3158 13.0358C29.4504 12.7158 29.5677 12.4321 29.6689 12.1814L29.8505 11.7228L30.0484 11.187L28.7306 9.87464L28.3382 10.0299C28.1211 10.1184 27.8725 10.2234 27.5904 10.3461L27.297 10.4747L25.7589 11.1723C25.409 11.3326 25.0167 11.366 24.6485 11.271L24.431 11.1986L23.0586 10.6345C22.6994 10.4868 22.405 10.2193 22.2233 9.88042L22.1422 9.70529L21.6569 8.4913L21.3053 7.64081L21.1105 7.18849L20.8717 6.66661ZM20.0008 13.3333C23.6777 13.3333 26.6666 16.3216 26.6666 19.9985C26.6666 23.6756 23.6775 26.6666 20.0008 26.6666C16.323 26.6666 13.3333 23.6761 13.3333 19.9985C13.3333 16.3211 16.3228 13.3333 20.0008 13.3333ZM20.0008 16.6666C18.1633 16.6666 16.6666 18.1625 16.6666 19.9985C16.6666 21.8354 18.1642 23.3333 20.0008 23.3333C21.836 23.3333 23.3333 21.8351 23.3333 19.9985C23.3333 18.1627 21.8369 16.6666 20.0008 16.6666Z" fill="white"/>
</svg>
