<svg width="40" height="40" viewBox="0 0 40 40" fill="none" xmlns="http://www.w3.org/2000/svg">
<path fill-rule="evenodd" clip-rule="evenodd" d="M20 3.33496C29.2038 3.33496 36.665 10.7961 36.665 20C36.665 29.2038 29.2038 36.665 20 36.665C10.7962 36.665 3.33502 29.2038 3.33502 20C3.33502 10.7961 10.7962 3.33496 20 3.33496ZM30.5334 11.8264L11.8266 30.5335C14.0839 32.2875 16.92 33.332 20 33.332C27.3631 33.332 33.332 27.363 33.332 20C33.332 16.9199 32.2875 14.0837 30.5334 11.8264ZM18.3336 6.7711C11.757 7.59114 6.66802 13.2013 6.66802 20C6.66802 23.08 7.71248 25.9161 9.46653 28.1733L18.3336 19.3067V6.7711ZM21.6681 6.77131L21.6665 15.9737L28.1737 9.46669C26.3304 8.03424 24.1011 7.07499 21.6681 6.77131Z" fill="white"/>
</svg>
